<?xml version="1.0" standalone="no"?>
<!DOCTYPE svg PUBLIC "-//W3C//DTD SVG 20010904//EN"
 "http://www.w3.org/TR/2001/REC-SVG-20010904/DTD/svg10.dtd">
<svg version="1.0" xmlns="http://www.w3.org/2000/svg"
 width="700.000000pt" height="700.000000pt" viewBox="0 0 700.000000 700.000000"
 preserveAspectRatio="xMidYMid meet">
<metadata>
Created by potrace 1.14, written by Peter Selinger 2001-2017
</metadata>
<g transform="translate(0.000000,700.000000) scale(0.100000,-0.100000)"
fill="#000000" stroke="none">
<path d="M2481 6185 c-33 -25 -61 -47 -61 -49 0 -3 201 -196 698 -671 l32 -31
-40 -77 c-22 -43 -40 -87 -40 -98 0 -19 -14 -19 -848 -19 -879 0 -928 -2
-1006 -42 -60 -31 -133 -105 -163 -167 l-28 -56 0 -1460 0 -1460 22 -47 c28
-60 94 -132 151 -165 65 -39 142 -53 285 -53 l127 0 1 -62 c1 -114 51 -198
145 -244 l59 -29 270 0 c253 0 273 1 315 21 98 45 160 143 160 252 l0 62 924
0 923 0 5 -72 c6 -85 28 -136 85 -190 70 -68 90 -72 355 -76 268 -4 324 3 395
51 73 49 105 110 111 207 l5 80 141 0 c157 0 231 13 298 53 57 33 123 105 151
165 l22 47 0 1460 0 1460 -28 57 c-35 72 -119 149 -195 180 l-57 23 -882 3
c-827 2 -883 4 -883 20 0 9 -13 44 -29 78 l-29 61 384 368 385 367 -63 44
c-34 24 -65 44 -69 44 -4 0 -174 -159 -377 -354 l-369 -354 -73 36 c-65 33
-82 37 -169 40 -80 3 -106 0 -156 -18 -33 -12 -70 -22 -81 -23 -15 -2 -112 85
-345 309 -178 171 -340 325 -360 342 l-37 32 -61 -45z m1151 -802 c48 -27 118
-107 118 -134 0 -5 -111 -9 -250 -9 -137 0 -250 4 -250 8 0 4 13 29 29 53 72
114 230 150 353 82z m2078 -343 c22 -11 52 -39 67 -62 l28 -42 0 -1421 0
-1421 -28 -42 c-15 -23 -45 -51 -67 -62 -39 -20 -52 -20 -2210 -20 -2158 0
-2171 0 -2210 20 -22 11 -52 39 -67 62 l-28 42 0 1420 0 1421 23 37 c13 21 42
49 65 63 l42 25 2173 0 c2160 0 2173 0 2212 -20z m-3322 -3307 c-4 -46 -10
-61 -32 -80 -27 -23 -30 -23 -271 -23 -241 0 -244 0 -271 23 -22 19 -28 34
-32 80 l-4 57 307 0 307 0 -4 -57z m2802 6 c0 -43 -5 -55 -29 -80 l-29 -29
-242 0 c-146 0 -249 4 -261 10 -27 15 -49 63 -49 110 l0 40 305 0 305 0 0 -51z"/>
<path d="M1680 4721 c-70 -15 -128 -59 -149 -114 -8 -19 -11 -363 -11 -1092 0
-729 3 -1073 11 -1092 14 -38 46 -71 94 -96 l40 -22 1835 0 1835 0 41 22 c52
28 91 74 99 116 3 18 4 512 3 1099 -3 1064 -3 1067 -24 1095 -31 41 -78 70
-135 82 -57 12 -3579 14 -3639 2z m3600 -1206 l0 -1045 -1780 0 -1780 0 0
1045 0 1045 1780 0 1780 0 0 -1045z"/>
<path d="M4900 3924 c-228 -57 -615 -94 -796 -76 -60 6 -111 9 -113 6 -3 -2
-7 -31 -9 -63 -5 -68 -9 -65 115 -82 166 -22 485 1 703 52 180 41 189 46 210
92 25 55 26 97 3 96 -10 -1 -61 -12 -113 -25z"/>
<path d="M2920 3618 c-147 -107 -490 -242 -773 -303 l-77 -17 22 -39 c12 -21
32 -48 44 -60 22 -20 23 -21 106 -4 281 58 588 191 767 333 l24 20 -23 56
c-12 31 -25 56 -29 55 -3 0 -31 -19 -61 -41z"/>
<path d="M3662 2955 c-177 -49 -238 -170 -117 -229 129 -64 379 -1 431 108 36
75 -35 128 -175 133 -54 2 -106 -3 -139 -12z"/>
</g>
</svg>
