<?xml version="1.0" encoding="utf-8"?>
<!-- Generator: Adobe Illustrator 28.1.0, SVG Export Plug-In . SVG Version: 6.00 Build 0)  -->
<svg version="1.1" id="Layer_1" xmlns="http://www.w3.org/2000/svg" xmlns:xlink="http://www.w3.org/1999/xlink" x="0px" y="0px"
	 viewBox="0 0 150 30" style="enable-background:new 0 0 150 30;" xml:space="preserve">
<style type="text/css">
	.st0{display:none;}
	.st1{display:inline;}
	.st2{fill:#FFFFFF;stroke:#000000;stroke-width:0.75;stroke-miterlimit:10;}
	.st3{fill:#FFFF96;stroke:#000000;stroke-width:0.75;stroke-miterlimit:10;}
	.st4{fill:none;}
</style>
<g id="Layer_2_00000170275064079794258880000011974059823242793102_" class="st0">
	<rect class="st1" width="150" height="30"/>
</g>
<g>
	<g>
		<g>
			<g>
				<path class="st2" d="M1.9,21.1c0.2-1.1,0.5-1.8,0.5-1.8s1.2,1.3,3.1,1.3c0.8,0,1.3-0.6,1.2-1.6c0-0.8-0.4-1.3-1.4-1.8l-1-0.5
					c-1.6-0.7-2.6-2.1-2.8-5.4c-0.2-4.4,1.8-7,4.4-7c1.3,0,2.4,0.5,2.9,0.8C9.7,5.9,9.9,6.6,9.5,9c-0.2,0.8-0.4,1.5-0.4,1.5
					S7.7,9.4,6.2,9.4C5.4,9.4,5,9.9,5,10.9c0,0.8,0.4,1.2,1.2,1.5L7.3,13c2.3,1.1,2.9,3.1,3,5.6c0.2,4.6-2,6.9-4.7,6.9
					c-1.2,0-2.4-0.5-2.8-0.7C1.7,24,1.6,23,1.9,21.1z"/>
				<path class="st3" d="M12.7,11.2c0-1.3-0.4-2.9,1-2.9H15c1.1,0,1.1,1.4,1.1,2.6c0,1.7-0.2,10-0.1,11.4c0.1,1.2,0.4,2.9-1,2.9
					h-1.2c-1.1,0-1.1-1.5-1.1-2.6C12.7,19.7,12.7,12.6,12.7,11.2z"/>
				<path class="st3" d="M20.8,12.5c-0.5,0-1.4,0-1.7,0.1c-0.7,0.1-0.9-0.4-0.9-1.4V9.4c0-0.9,0.1-1.1,1-1.1c0,0,5.5,0.1,6.8-0.1
					c0.7-0.1,0.9,0.6,0.9,1.6l0,1.6c0,0.9-0.1,1.2-1,1.2h-1.8c-0.1,3.5-0.1,9-0.1,9.8c0,1.2,0.4,2.9-1,2.9h-1.2
					c-1.1,0-1.1-1.5-1.1-2.6C20.7,21.5,20.9,15.3,20.8,12.5z"/>
				<path class="st3" d="M33.2,8c1.7,0,2.6,1,2.9,1.3c0.3,0.4,0.6,1.1,0.1,2.7c-0.4,1.1-0.8,1.5-0.8,1.5s-0.7-1-1.9-1
					c-1.5,0-1.9,1.9-1.9,4.2c0,2.3,0.6,4.2,1.9,4.2c0.8,0,1.3-0.5,1.5-0.8c0.3-0.3,0.7-0.6,1,0.3l0.6,1.8c0.2,0.6,0.3,1,0,1.5
					c-0.6,0.8-1.7,1.6-3.2,1.6c-3.3,0-5-3.8-5-8.7C28.4,11.8,29.9,8,33.2,8z"/>
				<path class="st3" d="M43.4,8c3.2,0,5,3.8,4.9,8.7c-0.1,4.9-1.6,8.7-4.8,8.7c-3.2,0-5-3.8-4.9-8.7C38.7,11.8,40.2,8,43.4,8z
					 M45,16.7c0-2.3-0.3-4.3-1.5-4.3c-1.3,0-1.5,2-1.5,4.3c0,2.2,0.3,4.4,1.5,4.4C44.7,21.1,45,18.9,45,16.7z"/>
				<path class="st3" d="M51.1,10.6c0-0.8,0-2.4,1-2.4h2.2c0.4,0,1,0.1,1.2,1.3c0.1,0.8,1,7.6,1,7.6h0.1c0,0,1.1-7.1,1.2-7.7
					c0.1-1.3,0.8-1.3,1.2-1.3h2.1c1.1,0,1.1,1.4,1.1,2.6c0,1.5,0.5,9.7,0.6,11.9c0,1.2,0.4,2.4-1.1,2.4h-1.1c-1.2,0-1-1.1-1-2.2
					c-0.1-1.4-0.2-7.1-0.4-9.1h-0.1c-0.2,1.5-0.9,6.4-1.1,7.6c-0.1,0.8-0.4,1-0.8,1h-1.7c-0.5,0-0.8-0.7-0.8-1.1
					c-0.2-1.5-0.9-6.2-1.1-7.5h-0.1c-0.1,2.2-0.2,8.1-0.2,9.2c0,1.3,0.2,2.1-1,2.1h-1.2c-1.1,0-1.2-0.9-1.1-2
					C50.5,20.3,51,12,51.1,10.6z"/>
				<path class="st2" d="M70.1,21.1c0.2-1.1,0.5-1.8,0.5-1.8s1.2,1.3,3.1,1.3c0.8,0,1.3-0.6,1.2-1.6c0-0.8-0.4-1.3-1.4-1.8l-1-0.5
					c-1.6-0.7-2.6-2.1-2.8-5.4c-0.2-4.4,1.8-7,4.4-7c1.3,0,2.4,0.5,2.9,0.8c0.9,0.6,1.1,1.3,0.7,3.7c-0.2,0.8-0.4,1.5-0.4,1.5
					s-1.3-1.2-2.8-1.2c-0.8,0-1.3,0.6-1.2,1.6c0,0.8,0.4,1.2,1.2,1.5l1.1,0.5c2.3,1.1,2.9,3.1,3,5.6c0.2,4.6-2,6.9-4.7,6.9
					c-1.2,0-2.4-0.5-2.8-0.7C69.9,24,69.8,23,70.1,21.1z"/>
				<path class="st3" d="M80.7,22.1c0.1-3.2,0.1-9.1,0.1-10.5c0-0.8-0.1-1.5,0-2.2c0.1-0.7,0.3-1.1,1.1-1.1h1.2c0.8,0,1,0.8,1.1,1.6
					c0,0.3,0,0.8,0,1.3c0,1.6-0.1,7-0.1,9.8c0.9,0,2.2,0,2.7-0.1c0.7-0.1,1,0.5,1,1.5c0,0.5,0,1,0,1.6c0,1-0.1,1.2-1,1.2h-4.9
					c-0.8,0-1-0.8-1.1-1.7C80.7,23.1,80.7,22.6,80.7,22.1z"/>
				<path class="st3" d="M90.1,11.2c0-1.3-0.4-2.9,1-2.9h5c0.8,0,1,0.6,1,1.6v1.3c0,1-0.4,1.4-1,1.4c-0.6,0-1.7,0-2.8,0v2.4
					c0.8,0,1.9,0,2.2,0c0.4,0,0.8,0.3,0.8,1.1v1.3c0,1-0.2,1.1-0.7,1.2c-0.4,0-1.5,0-2.3,0c0,1,0,1.7,0,2.5c1,0,2.4-0.1,2.8-0.1
					c0.7-0.1,1,0.4,1,1.4V24c0,1-0.1,1.2-1,1.2h-5.1c-1.1,0-1.1-1.5-1.1-2.6C90.1,19.7,90.1,12.1,90.1,11.2z"/>
				<path class="st3" d="M99.8,11.2c0-1.3-0.4-2.9,1-2.9h5c0.8,0,1,0.6,1,1.6v1.3c0,1-0.4,1.4-1,1.4c-0.6,0-1.7,0-2.8,0v2.4
					c0.8,0,1.9,0,2.2,0c0.4,0,0.8,0.3,0.8,1.1v1.3c0,1-0.2,1.1-0.7,1.2c-0.4,0-1.5,0-2.3,0c0,1,0,1.7,0,2.5c1,0,2.4-0.1,2.8-0.1
					c0.7-0.1,1,0.4,1,1.4V24c0,1-0.1,1.2-1,1.2h-5.1c-1.1,0-1.1-1.5-1.1-2.6C99.8,19.7,99.8,12.1,99.8,11.2z"/>
				<path class="st3" d="M109.5,11.2c0-1.3-0.4-2.9,1-2.9h3.2c2.7,0,4.2,2.5,4.1,6c-0.1,3.4-1.3,6-4,6h-1.2c0,0.7,0,1.7,0,2
					c0,1.2,0.4,2.9-1,2.9h-1.2c-1.1,0-1.1-1.5-1.1-2.6C109.4,19.7,109.5,12.1,109.5,11.2z M113.2,16.8c1.1,0,1.4-1,1.5-2.4
					c0.1-1.4-0.3-2.5-1.3-2.5h-0.6c-0.1,1.1-0.1,3.4-0.1,4.9H113.2z"/>
				<path class="st3" d="M120.3,11.2c0-1.3-0.4-2.9,1-2.9h5c0.8,0,1,0.6,1,1.6v1.3c0,1-0.4,1.4-1,1.4c-0.6,0-1.7,0-2.8,0v2.4
					c0.8,0,1.9,0,2.2,0c0.4,0,0.8,0.3,0.8,1.1v1.3c0,1-0.2,1.1-0.7,1.2c-0.4,0-1.5,0-2.3,0c0,1,0,1.7,0,2.5c1,0,2.4-0.1,2.8-0.1
					c0.7-0.1,1,0.4,1,1.4V24c0,1-0.1,1.2-1,1.2h-5.1c-1.1,0-1.1-1.5-1.1-2.6C120.2,19.7,120.3,12.1,120.3,11.2z"/>
				<path class="st3" d="M130,11.2c0-1.2-0.4-2.9,1-2.9h3.2c2.7,0,4.2,2.4,4.1,5.9c-0.1,2.1-0.7,3.6-1.7,4.5l0.9,2.1
					c0.3,0.8,0.6,0.9,1,0.9c0.4,2.9-0.3,3.8-1.6,3.8c-1.1,0-1.6-1-2-2.4l-1.1-3.4h-0.6c0,0.6-0.1,2.6,0,3.5c0.1,1.5-0.2,2-1,2h-1.2
					c-1.1,0-1.1-1.5-1.1-2.6C129.9,19.7,129.9,12.1,130,11.2z M133.7,16.4c1,0,1.5-0.7,1.5-2.3c0-1-0.3-2.2-1.5-2.2h-0.7
					c0,1.1,0,3.5,0,4.4H133.7z"/>
				<path class="st3" d="M141,21.7c0.2-0.9,0.5-1.5,0.5-1.5s1.1,1.1,2.7,1.1c0.6,0,1-0.5,1-1.2c0-0.7-0.3-1-1.2-1.4l-0.9-0.4
					c-1.5-0.6-2.4-1.8-2.5-4.5c-0.1-3.7,1.6-5.8,3.9-5.8c1.2,0,2.2,0.5,2.6,0.7c0.8,0.6,1,1.1,0.6,3.1c-0.2,0.7-0.4,1.3-0.4,1.3
					s-1.2-1-2.5-1c-0.7,0-1,0.4-1,1.2c0,0.7,0.4,0.9,1,1.2l1,0.4c2,0.9,2.6,2.6,2.7,4.7c0.2,3.8-1.8,5.8-4.2,5.8
					c-1,0-2.1-0.4-2.4-0.6C140.8,24.2,140.6,23.4,141,21.7z"/>
			</g>
		</g>
	</g>
</g>
<rect x="120.6" y="13.5" class="st4" width="19.7" height="6.7"/>
</svg>
